<?xml version="1.0" encoding="utf-8" standalone="no"?>
<!DOCTYPE svg PUBLIC "-//W3C//DTD SVG 1.1//EN"
  "http://www.w3.org/Graphics/SVG/1.1/DTD/svg11.dtd">
<svg xmlns:xlink="http://www.w3.org/1999/xlink" width="864pt" height="864pt" viewBox="0 0 864 864" xmlns="http://www.w3.org/2000/svg" version="1.1">
 <metadata>
  <rdf:RDF xmlns:dc="http://purl.org/dc/elements/1.1/" xmlns:cc="http://creativecommons.org/ns#" xmlns:rdf="http://www.w3.org/1999/02/22-rdf-syntax-ns#">
   <cc:Work>
    <dc:type rdf:resource="http://purl.org/dc/dcmitype/StillImage"/>
    <dc:date>2022-05-16T13:00:42.497637</dc:date>
    <dc:format>image/svg+xml</dc:format>
    <dc:creator>
     <cc:Agent>
      <dc:title>Matplotlib v3.5.2, https://matplotlib.org/</dc:title>
     </cc:Agent>
    </dc:creator>
   </cc:Work>
  </rdf:RDF>
 </metadata>
 <defs>
  <style type="text/css">*{stroke-linejoin: round; stroke-linecap: butt}</style>
 </defs>
 <g id="figure_1">
  <g id="patch_1">
   <path d="M 0 864 
L 864 864 
L 864 0 
L 0 0 
z
" style="fill: #ffffff"/>
  </g>
  <g id="axes_1">
   <g id="patch_2">
    <path d="M 108 370.734545 
L 777.6 370.734545 
L 777.6 103.68 
L 108 103.68 
z
" style="fill: #ffffff"/>
   </g>
   <g id="matplotlib.axis_1">
    <g id="xtick_1">
     <g id="line2d_1">
      <defs>
       <path id="m4fe048f762" d="M 0 0 
L 0 3.5 
" style="stroke: #000000; stroke-width: 0.8"/>
      </defs>
      <g>
       <use xlink:href="#m4fe048f762" x="129.677698" y="370.734545" style="stroke: #000000; stroke-width: 0.8"/>
      </g>
     </g>
    </g>
    <g id="xtick_2">
     <g id="line2d_2">
      <g>
       <use xlink:href="#m4fe048f762" x="234.781687" y="370.734545" style="stroke: #000000; stroke-width: 0.8"/>
      </g>
     </g>
    </g>
    <g id="xtick_3">
     <g id="line2d_3">
      <g>
       <use xlink:href="#m4fe048f762" x="339.885677" y="370.734545" style="stroke: #000000; stroke-width: 0.8"/>
      </g>
     </g>
    </g>
    <g id="xtick_4">
     <g id="line2d_4">
      <g>
       <use xlink:href="#m4fe048f762" x="444.989666" y="370.734545" style="stroke: #000000; stroke-width: 0.8"/>
      </g>
     </g>
    </g>
    <g id="xtick_5">
     <g id="line2d_5">
      <g>
       <use xlink:href="#m4fe048f762" x="550.093656" y="370.734545" style="stroke: #000000; stroke-width: 0.8"/>
      </g>
     </g>
    </g>
    <g id="xtick_6">
     <g id="line2d_6">
      <g>
       <use xlink:href="#m4fe048f762" x="655.197646" y="370.734545" style="stroke: #000000; stroke-width: 0.8"/>
      </g>
     </g>
    </g>
    <g id="xtick_7">
     <g id="line2d_7">
      <g>
       <use xlink:href="#m4fe048f762" x="760.301635" y="370.734545" style="stroke: #000000; stroke-width: 0.8"/>
      </g>
     </g>
    </g>
    <g id="xtick_8">
     <g id="line2d_8">
      <defs>
       <path id="m8d881e7351" d="M 0 0 
L 0 2 
" style="stroke: #000000; stroke-width: 0.6"/>
      </defs>
      <g>
       <use xlink:href="#m8d881e7351" x="171.719294" y="370.734545" style="stroke: #000000; stroke-width: 0.6"/>
      </g>
     </g>
    </g>
    <g id="xtick_9">
     <g id="line2d_9">
      <g>
       <use xlink:href="#m8d881e7351" x="297.844081" y="370.734545" style="stroke: #000000; stroke-width: 0.6"/>
      </g>
     </g>
    </g>
    <g id="xtick_10">
     <g id="line2d_10">
      <g>
       <use xlink:href="#m8d881e7351" x="423.968869" y="370.734545" style="stroke: #000000; stroke-width: 0.6"/>
      </g>
     </g>
    </g>
    <g id="xtick_11">
     <g id="line2d_11">
      <g>
       <use xlink:href="#m8d881e7351" x="676.218443" y="370.734545" style="stroke: #000000; stroke-width: 0.6"/>
      </g>
     </g>
    </g>
   </g>
   <g id="matplotlib.axis_2">
    <g id="ytick_1">
     <g id="line2d_12">
      <defs>
       <path id="m7f235b7ea9" d="M 0 0 
L -3.5 0 
" style="stroke: #000000; stroke-width: 0.8"/>
      </defs>
      <g>
       <use xlink:href="#m7f235b7ea9" x="108" y="359.290159" style="stroke: #000000; stroke-width: 0.8"/>
      </g>
     </g>
     <g id="text_1">
      <!-- 0 -->
      <g transform="translate(94.6375 363.089377)scale(0.1 -0.1)">
       <defs>
        <path id="DejaVuSans-30" d="M 2034 4250 
Q 1547 4250 1301 3770 
Q 1056 3291 1056 2328 
Q 1056 1369 1301 889 
Q 1547 409 2034 409 
Q 2525 409 2770 889 
Q 3016 1369 3016 2328 
Q 3016 3291 2770 3770 
Q 2525 4250 2034 4250 
z
M 2034 4750 
Q 2819 4750 3233 4129 
Q 3647 3509 3647 2328 
Q 3647 1150 3233 529 
Q 2819 -91 2034 -91 
Q 1250 -91 836 529 
Q 422 1150 422 2328 
Q 422 3509 836 4129 
Q 1250 4750 2034 4750 
z
" transform="scale(0.015625)"/>
       </defs>
       <use xlink:href="#DejaVuSans-30"/>
      </g>
     </g>
    </g>
    <g id="ytick_2">
     <g id="line2d_13">
      <g>
       <use xlink:href="#m7f235b7ea9" x="108" y="328.745535" style="stroke: #000000; stroke-width: 0.8"/>
      </g>
     </g>
     <g id="text_2">
      <!-- 25 -->
      <g transform="translate(88.275 332.544754)scale(0.1 -0.1)">
       <defs>
        <path id="DejaVuSans-32" d="M 1228 531 
L 3431 531 
L 3431 0 
L 469 0 
L 469 531 
Q 828 903 1448 1529 
Q 2069 2156 2228 2338 
Q 2531 2678 2651 2914 
Q 2772 3150 2772 3378 
Q 2772 3750 2511 3984 
Q 2250 4219 1831 4219 
Q 1534 4219 1204 4116 
Q 875 4013 500 3803 
L 500 4441 
Q 881 4594 1212 4672 
Q 1544 4750 1819 4750 
Q 2544 4750 2975 4387 
Q 3406 4025 3406 3419 
Q 3406 3131 3298 2873 
Q 3191 2616 2906 2266 
Q 2828 2175 2409 1742 
Q 1991 1309 1228 531 
z
" transform="scale(0.015625)"/>
        <path id="DejaVuSans-35" d="M 691 4666 
L 3169 4666 
L 3169 4134 
L 1269 4134 
L 1269 2991 
Q 1406 3038 1543 3061 
Q 1681 3084 1819 3084 
Q 2600 3084 3056 2656 
Q 3513 2228 3513 1497 
Q 3513 744 3044 326 
Q 2575 -91 1722 -91 
Q 1428 -91 1123 -41 
Q 819 9 494 109 
L 494 744 
Q 775 591 1075 516 
Q 1375 441 1709 441 
Q 2250 441 2565 725 
Q 2881 1009 2881 1497 
Q 2881 1984 2565 2268 
Q 2250 2553 1709 2553 
Q 1456 2553 1204 2497 
Q 953 2441 691 2322 
L 691 4666 
z
" transform="scale(0.015625)"/>
       </defs>
       <use xlink:href="#DejaVuSans-32"/>
       <use xlink:href="#DejaVuSans-35" x="63.623047"/>
      </g>
     </g>
    </g>
    <g id="ytick_3">
     <g id="line2d_14">
      <g>
       <use xlink:href="#m7f235b7ea9" x="108" y="298.200912" style="stroke: #000000; stroke-width: 0.8"/>
      </g>
     </g>
     <g id="text_3">
      <!-- 50 -->
      <g transform="translate(88.275 302.00013)scale(0.1 -0.1)">
       <use xlink:href="#DejaVuSans-35"/>
       <use xlink:href="#DejaVuSans-30" x="63.623047"/>
      </g>
     </g>
    </g>
    <g id="ytick_4">
     <g id="line2d_15">
      <g>
       <use xlink:href="#m7f235b7ea9" x="108" y="267.656288" style="stroke: #000000; stroke-width: 0.8"/>
      </g>
     </g>
     <g id="text_4">
      <!-- 75 -->
      <g transform="translate(88.275 271.455507)scale(0.1 -0.1)">
       <defs>
        <path id="DejaVuSans-37" d="M 525 4666 
L 3525 4666 
L 3525 4397 
L 1831 0 
L 1172 0 
L 2766 4134 
L 525 4134 
L 525 4666 
z
" transform="scale(0.015625)"/>
       </defs>
       <use xlink:href="#DejaVuSans-37"/>
       <use xlink:href="#DejaVuSans-35" x="63.623047"/>
      </g>
     </g>
    </g>
    <g id="ytick_5">
     <g id="line2d_16">
      <g>
       <use xlink:href="#m7f235b7ea9" x="108" y="237.111665" style="stroke: #000000; stroke-width: 0.8"/>
      </g>
     </g>
     <g id="text_5">
      <!-- 100 -->
      <g transform="translate(81.9125 240.910883)scale(0.1 -0.1)">
       <defs>
        <path id="DejaVuSans-31" d="M 794 531 
L 1825 531 
L 1825 4091 
L 703 3866 
L 703 4441 
L 1819 4666 
L 2450 4666 
L 2450 531 
L 3481 531 
L 3481 0 
L 794 0 
L 794 531 
z
" transform="scale(0.015625)"/>
       </defs>
       <use xlink:href="#DejaVuSans-31"/>
       <use xlink:href="#DejaVuSans-30" x="63.623047"/>
       <use xlink:href="#DejaVuSans-30" x="127.246094"/>
      </g>
     </g>
    </g>
    <g id="ytick_6">
     <g id="line2d_17">
      <g>
       <use xlink:href="#m7f235b7ea9" x="108" y="206.567041" style="stroke: #000000; stroke-width: 0.8"/>
      </g>
     </g>
     <g id="text_6">
      <!-- 125 -->
      <g transform="translate(81.9125 210.36626)scale(0.1 -0.1)">
       <use xlink:href="#DejaVuSans-31"/>
       <use xlink:href="#DejaVuSans-32" x="63.623047"/>
       <use xlink:href="#DejaVuSans-35" x="127.246094"/>
      </g>
     </g>
    </g>
    <g id="ytick_7">
     <g id="line2d_18">
      <g>
       <use xlink:href="#m7f235b7ea9" x="108" y="176.022418" style="stroke: #000000; stroke-width: 0.8"/>
      </g>
     </g>
     <g id="text_7">
      <!-- 150 -->
      <g transform="translate(81.9125 179.821636)scale(0.1 -0.1)">
       <use xlink:href="#DejaVuSans-31"/>
       <use xlink:href="#DejaVuSans-35" x="63.623047"/>
       <use xlink:href="#DejaVuSans-30" x="127.246094"/>
      </g>
     </g>
    </g>
    <g id="ytick_8">
     <g id="line2d_19">
      <g>
       <use xlink:href="#m7f235b7ea9" x="108" y="145.477794" style="stroke: #000000; stroke-width: 0.8"/>
      </g>
     </g>
     <g id="text_8">
      <!-- 175 -->
      <g transform="translate(81.9125 149.277013)scale(0.1 -0.1)">
       <use xlink:href="#DejaVuSans-31"/>
       <use xlink:href="#DejaVuSans-37" x="63.623047"/>
       <use xlink:href="#DejaVuSans-35" x="127.246094"/>
      </g>
     </g>
    </g>
    <g id="ytick_9">
     <g id="line2d_20">
      <g>
       <use xlink:href="#m7f235b7ea9" x="108" y="114.933171" style="stroke: #000000; stroke-width: 0.8"/>
      </g>
     </g>
     <g id="text_9">
      <!-- 200 -->
      <g transform="translate(81.9125 118.732389)scale(0.1 -0.1)">
       <use xlink:href="#DejaVuSans-32"/>
       <use xlink:href="#DejaVuSans-30" x="63.623047"/>
       <use xlink:href="#DejaVuSans-30" x="127.246094"/>
      </g>
     </g>
    </g>
   </g>
   <g id="line2d_21">
    <path d="M 138.436364 357.815955 
L 139.31223 357.929143 
L 141.93983 356.987021 
L 145.443296 355.68774 
L 147.195029 355.464553 
L 149.822629 354.770315 
L 151.574362 354.266404 
L 154.201962 353.785114 
L 157.705428 353.171604 
L 159.457162 352.756074 
L 161.208895 352.53066 
L 162.084761 352.298025 
L 162.960628 352.21658 
L 163.836494 352.29008 
L 164.712361 352.153235 
L 165.588228 351.890442 
L 169.091694 351.401562 
L 170.843427 351.286916 
L 173.471027 350.827414 
L 175.22276 350.818481 
L 176.098627 350.516893 
L 176.974493 350.417604 
L 177.85036 350.006573 
L 178.726226 349.460993 
L 179.602093 349.335377 
L 180.477959 349.608226 
L 182.229693 349.492141 
L 183.105559 349.559392 
L 183.981426 349.050971 
L 184.857292 348.129117 
L 185.733159 347.974031 
L 186.609026 348.121527 
L 188.360759 347.506589 
L 189.236625 346.605387 
L 190.112492 346.401884 
L 190.988358 345.607418 
L 191.864225 346.114894 
L 192.740092 347.031581 
L 193.615958 346.620175 
L 194.491825 346.004274 
L 195.367691 344.940945 
L 197.119424 345.223285 
L 197.995291 345.025942 
L 198.871158 344.368949 
L 199.747024 343.943701 
L 200.622891 343.094417 
L 201.498757 341.993216 
L 202.374624 342.447446 
L 203.250491 343.632451 
L 205.002224 343.531159 
L 205.87809 343.579464 
L 206.753957 343.397861 
L 207.629823 342.829869 
L 208.50569 342.880966 
L 209.381557 343.541936 
L 210.257423 342.074926 
L 211.13329 339.510979 
L 212.009156 338.753889 
L 212.885023 337.1464 
L 213.760889 331.240225 
L 214.636756 330.013488 
L 215.512623 327.903665 
L 216.388489 326.10737 
L 218.140222 314.90857 
L 219.016089 312.764935 
L 219.891956 308.632542 
L 220.767822 302.221561 
L 221.643689 300.842475 
L 222.519555 297.976154 
L 223.395422 291.820126 
L 224.271288 290.331571 
L 225.147155 284.248311 
L 226.898888 275.552393 
L 227.774755 272.66626 
L 228.650621 270.250727 
L 229.526488 266.735172 
L 230.402354 265.084772 
L 231.278221 262.195178 
L 232.154088 258.433483 
L 233.029954 256.334214 
L 233.905821 251.403273 
L 234.781687 248.987449 
L 235.657554 244.187509 
L 238.285154 234.942437 
L 239.16102 228.45978 
L 240.036887 224.014747 
L 240.912753 221.719205 
L 242.664487 212.25477 
L 243.540353 209.437927 
L 245.292086 205.293114 
L 246.167953 198.961017 
L 247.043819 191.420438 
L 247.919686 189.90182 
L 249.671419 178.80549 
L 250.547286 173.069699 
L 251.423152 169.222708 
L 252.299019 167.433653 
L 254.050752 157.51391 
L 254.926619 148.523534 
L 255.802485 143.235367 
L 256.678352 138.855752 
L 258.430085 127.811027 
L 259.305952 124.317804 
L 260.181818 122.659448 
L 261.057685 117.17998 
L 261.933551 115.818843 
L 262.809418 170.30995 
L 263.685284 190.125017 
L 264.561151 196.601965 
L 265.437018 199.55749 
L 266.312884 198.004116 
L 267.188751 204.084298 
L 268.064617 216.950465 
L 268.940484 220.965947 
L 269.816351 234.318609 
L 270.692217 256.258607 
L 271.568084 265.788063 
L 272.44395 268.561775 
L 273.319817 269.927174 
L 274.195683 266.480226 
L 275.07155 265.524191 
L 275.947417 266.444428 
L 276.823283 264.852884 
L 277.69915 266.442967 
L 278.575016 266.482654 
L 279.450883 267.348662 
L 280.32675 267.034637 
L 281.202616 264.087622 
L 282.078483 265.003648 
L 282.954349 269.279946 
L 283.830216 271.555777 
L 284.706082 271.593365 
L 285.581949 271.872539 
L 286.457816 274.58877 
L 287.333682 276.066043 
L 288.209549 274.668561 
L 289.085415 274.498404 
L 289.961282 276.510333 
L 290.837148 277.944598 
L 291.713015 278.754621 
L 292.588882 280.412912 
L 293.464748 280.64376 
L 294.340615 280.681214 
L 295.216481 281.824109 
L 296.968215 283.609253 
L 297.844081 283.882636 
L 298.719948 284.749423 
L 299.595814 286.554543 
L 300.471681 287.340811 
L 301.347547 289.039256 
L 302.238012 290.434484 
L 303.099281 292.191626 
L 303.975147 293.317179 
L 304.851014 293.449563 
L 305.72688 294.495665 
L 306.602747 296.647184 
L 307.478613 296.890526 
L 309.230347 298.202884 
L 310.106213 299.08214 
L 310.98208 299.255593 
L 311.857946 297.465739 
L 312.733813 297.756835 
L 313.60968 299.010731 
L 314.485546 299.578396 
L 315.37601 299.679067 
L 317.113146 300.612002 
L 317.989012 301.425829 
L 318.864879 302.021855 
L 319.740746 302.152926 
L 320.616612 302.841922 
L 322.368345 302.932197 
L 324.995945 303.240293 
L 325.871812 302.493826 
L 326.747678 302.624627 
L 327.623545 302.360872 
L 328.499411 302.591857 
L 329.375278 302.196287 
L 330.251145 302.021558 
L 331.127011 301.096399 
L 332.002878 300.864752 
L 332.878744 301.475185 
L 334.630477 302.28147 
L 335.506344 302.344799 
L 337.258077 304.031359 
L 338.133944 303.544526 
L 339.00981 303.215746 
L 340.761543 303.529386 
L 343.389143 304.120186 
L 344.26501 304.090534 
L 345.140876 303.835264 
L 346.016743 303.771845 
L 347.768476 304.595032 
L 348.644343 304.570534 
L 350.396076 304.838836 
L 351.271942 304.851094 
L 352.147809 305.559986 
L 353.023676 305.660224 
L 353.899542 305.566204 
L 354.775409 305.666483 
L 355.651275 306.0387 
L 356.527142 305.950072 
L 358.278875 304.66919 
L 360.906475 303.938189 
L 361.782341 303.275921 
L 362.658208 302.844979 
L 363.534075 302.200997 
L 364.409941 301.074411 
L 365.285808 300.645565 
L 366.161674 301.066495 
L 367.037541 301.04704 
L 368.789274 300.335296 
L 369.665141 299.004386 
L 370.541007 298.872118 
L 371.431472 299.122896 
L 372.29274 298.918126 
L 373.168607 298.320087 
L 374.044474 299.194625 
L 374.92034 298.499697 
L 375.796207 298.355689 
L 376.672073 298.852398 
L 378.438404 296.920499 
L 379.299673 297.534003 
L 380.17554 296.091813 
L 381.051406 295.510061 
L 381.927273 296.679208 
L 382.803139 296.435981 
L 383.679006 296.013533 
L 384.56947 296.381936 
L 385.430739 297.079825 
L 386.306606 296.301265 
L 387.182472 295.222412 
L 388.058339 294.964998 
L 388.948803 295.517467 
L 389.82467 295.660105 
L 390.685939 295.55895 
L 391.561805 294.517776 
L 392.437672 295.044322 
L 393.313538 294.592887 
L 394.189405 293.697536 
L 395.065271 293.300399 
L 395.941138 293.584727 
L 396.817005 293.718793 
L 398.568738 293.201101 
L 399.444604 293.904753 
L 400.320471 295.129527 
L 401.196337 296.710951 
L 402.072204 298.75102 
L 402.948071 299.276728 
L 403.823937 298.244461 
L 404.699804 298.780262 
L 405.57567 298.82012 
L 406.451537 298.690001 
L 407.327404 297.248275 
L 408.20327 296.87427 
L 409.079137 296.241706 
L 409.955003 296.425105 
L 410.83087 297.109063 
L 411.706736 297.463531 
L 412.582603 297.314983 
L 414.334336 297.440891 
L 416.961936 299.117549 
L 417.837802 300.106433 
L 418.713669 300.104487 
L 419.589536 300.295478 
L 421.341269 301.393492 
L 422.217135 301.788724 
L 423.093002 303.253599 
L 424.844735 302.51657 
L 425.720602 302.622014 
L 426.596468 302.551989 
L 427.472335 301.223266 
L 428.348201 302.0401 
L 429.224068 302.146304 
L 430.990399 301.417981 
L 431.866266 301.624358 
L 432.727534 301.506158 
L 433.617999 301.511412 
L 434.479267 301.683412 
L 436.231001 302.617422 
L 437.982734 301.740802 
L 438.8586 301.964462 
L 439.734467 301.44161 
L 440.610334 301.552154 
L 441.500798 301.489953 
L 442.362067 300.782379 
L 443.237933 300.548544 
L 444.1138 299.972443 
L 444.989666 299.163962 
L 445.865533 299.814971 
L 446.7414 299.730154 
L 447.617266 299.199597 
L 448.493133 298.228461 
L 449.368999 298.449903 
L 450.244866 297.868761 
L 451.120733 298.020972 
L 452.025795 297.636958 
L 452.872466 297.529191 
L 453.748332 297.533757 
L 454.624199 297.974898 
L 455.500065 297.412063 
L 456.375932 297.7703 
L 457.251799 296.979424 
L 458.127665 294.657467 
L 459.003532 294.415669 
L 459.879398 294.688343 
L 460.755265 294.178558 
L 461.631131 292.57931 
L 462.506998 292.894887 
L 463.382865 293.022248 
L 464.258731 294.324997 
L 465.134598 293.626335 
L 466.010464 293.203891 
L 466.886331 292.642194 
L 467.762198 292.25939 
L 468.638064 292.600161 
L 469.513931 292.438396 
L 470.389797 292.896699 
L 471.265664 292.364729 
L 472.14153 292.54192 
L 473.031995 293.005246 
L 474.76913 292.619214 
L 475.644997 293.712198 
L 476.520863 293.588344 
L 477.39673 292.540884 
L 478.272596 292.845731 
L 479.148463 292.576526 
L 480.02433 291.695777 
L 480.914794 292.020635 
L 481.776063 292.813895 
L 484.403663 296.702847 
L 486.155396 300.06036 
L 487.907129 299.842741 
L 489.67346 300.845687 
L 490.534729 300.573256 
L 491.425193 300.545318 
L 492.286462 301.565605 
L 493.162328 301.811486 
L 494.914061 302.833488 
L 496.665795 303.857591 
L 497.541661 303.992898 
L 498.417528 303.778117 
L 499.293394 304.396152 
L 500.169261 304.530552 
L 501.045128 304.206947 
L 501.920994 304.508979 
L 502.796861 304.567932 
L 503.672727 304.752646 
L 504.548594 305.154219 
L 505.42446 305.044467 
L 507.176194 305.435072 
L 508.05206 305.542747 
L 508.927927 305.298698 
L 509.803793 305.823468 
L 510.67966 306.05158 
L 511.555526 306.035317 
L 512.445991 306.516679 
L 513.30726 306.194898 
L 515.073591 306.464672 
L 515.934859 306.701027 
L 516.810726 306.547889 
L 517.686593 306.656609 
L 518.562459 306.636603 
L 519.438326 306.955498 
L 522.065925 306.749783 
L 522.95639 307.524371 
L 523.817659 307.129922 
L 524.693525 306.972762 
L 525.569392 306.269268 
L 526.459856 306.613276 
L 527.321125 306.162757 
L 528.196991 305.859057 
L 529.072858 304.976588 
L 529.948725 304.959941 
L 530.824591 305.086683 
L 531.700458 305.882702 
L 532.576324 306.516648 
L 534.328058 307.029866 
L 535.203924 307.599806 
L 536.079791 307.707779 
L 536.955657 308.632509 
L 537.831524 309.172555 
L 539.583257 309.415078 
L 540.459124 309.257367 
L 543.086723 309.998226 
L 543.96259 309.846253 
L 544.838457 309.996618 
L 545.714323 309.795861 
L 546.59019 310.048153 
L 547.466056 310.577198 
L 548.341923 310.732208 
L 550.093656 310.612752 
L 551.845389 311.50673 
L 552.721256 311.5783 
L 553.597122 311.783355 
L 554.472989 311.737926 
L 555.348855 312.068422 
L 557.129784 311.538646 
L 557.976455 312.155342 
L 560.604055 312.033748 
L 561.479922 312.336623 
L 562.355788 312.836417 
L 563.231655 312.427975 
L 564.997986 312.92702 
L 565.859254 313.570486 
L 566.735121 313.700324 
L 568.486854 314.306384 
L 569.362721 314.68748 
L 571.114454 314.954095 
L 571.99032 315.234507 
L 573.742054 315.403471 
L 574.61792 314.779537 
L 575.508385 315.267119 
L 576.369653 315.419662 
L 577.24552 315.417871 
L 578.121387 314.926762 
L 578.997253 313.992941 
L 579.87312 314.363385 
L 580.748986 314.342917 
L 581.624853 313.346612 
L 582.500719 313.747987 
L 583.376586 313.464627 
L 584.252453 313.465413 
L 585.128319 313.733751 
L 586.880052 312.433786 
L 587.755919 312.335041 
L 588.646383 312.991166 
L 589.52225 312.601911 
L 590.383519 311.184343 
L 591.259385 310.750298 
L 592.135252 309.796528 
L 593.886985 309.060656 
L 594.777449 307.800663 
L 595.638718 306.893701 
L 596.514585 307.789694 
L 597.390451 307.044099 
L 598.266318 307.688774 
L 599.142184 304.849122 
L 600.018051 306.831908 
L 600.893918 304.518577 
L 601.769784 304.912256 
L 602.645651 304.12381 
L 603.521517 304.012251 
L 604.397384 302.880707 
L 605.27325 302.725562 
L 606.149117 302.967806 
L 607.024984 300.710846 
L 607.90085 301.483506 
L 608.776717 299.418989 
L 609.652583 300.277889 
L 610.52845 299.744018 
L 611.404317 301.050295 
L 612.280183 301.09795 
L 613.15605 300.506814 
L 614.031916 302.284292 
L 614.907783 302.715158 
L 615.783649 304.238293 
L 616.659516 305.16898 
L 617.535383 305.227839 
L 618.411249 304.473783 
L 620.162982 303.94825 
L 621.038849 304.639757 
L 621.914716 304.007487 
L 622.790582 302.123016 
L 623.666449 304.305214 
L 624.542315 305.631688 
L 625.418182 302.660133 
L 626.308646 304.647624 
L 627.169915 306.179921 
L 628.045782 304.888689 
L 628.921648 304.801223 
L 629.797515 302.84787 
L 631.549248 307.22326 
L 632.425114 308.0918 
L 633.300981 307.302091 
L 634.176848 309.256312 
L 635.052714 307.737607 
L 635.928581 307.878307 
L 636.819045 307.434295 
L 637.680314 307.672987 
L 638.556181 306.909414 
L 639.432047 304.926924 
L 640.307914 307.106234 
L 641.18378 305.238417 
L 642.059647 302.075157 
L 642.935513 304.001897 
L 643.81138 304.535909 
L 644.687247 302.424937 
L 645.563113 303.528871 
L 646.43898 302.189555 
L 647.314846 302.002789 
L 648.190713 301.966178 
L 649.942446 301.264626 
L 650.818313 298.930944 
L 651.694179 298.662664 
L 652.570046 298.007694 
L 653.445912 296.612821 
L 654.321779 294.657212 
L 655.197646 293.772127 
L 656.073512 292.705191 
L 657.825245 289.802687 
L 658.701112 291.806295 
L 659.576978 292.147732 
L 660.452845 291.355707 
L 661.328712 291.728308 
L 662.204578 292.322111 
L 663.080445 291.33431 
L 663.956311 289.90715 
L 664.832178 290.206468 
L 665.708044 289.879194 
L 666.583911 288.70889 
L 667.459778 288.352823 
L 668.335644 287.123124 
L 669.211511 285.436062 
L 670.101975 284.859154 
L 670.963244 283.871699 
L 671.839111 283.832773 
L 672.714977 283.344071 
L 673.590844 285.158372 
L 674.46671 285.961736 
L 676.218443 289.343526 
L 677.09431 289.556065 
L 677.970177 289.281296 
L 678.846043 289.27982 
L 679.72191 288.991574 
L 683.225376 286.67153 
L 684.101243 286.969098 
L 684.977109 287.609778 
L 685.852976 288.528831 
L 686.728842 289.204051 
L 688.480576 287.254364 
L 689.356442 284.172082 
L 690.232309 285.862395 
L 691.108175 286.201286 
L 692.859908 287.593674 
L 693.735775 287.312821 
L 695.487508 288.801753 
L 696.363375 288.870842 
L 697.239241 287.94049 
L 698.115108 286.013766 
L 699.866841 288.266269 
L 700.742708 290.154373 
L 703.370307 288.381376 
L 704.246174 289.185074 
L 705.122041 288.118024 
L 705.997907 289.671385 
L 706.873774 289.242779 
L 707.74964 286.678659 
L 709.501373 290.365537 
L 711.253107 292.39208 
L 712.128973 291.64768 
L 713.880706 290.680437 
L 714.756573 292.004853 
L 715.63244 292.128379 
L 716.508306 291.456733 
L 717.384173 289.459162 
L 718.260039 289.132271 
L 719.135906 289.318024 
L 720.011772 288.917408 
L 720.887639 288.35603 
L 721.763506 288.089847 
L 722.639372 288.751012 
L 723.515239 289.927852 
L 724.391105 290.248485 
L 726.142838 287.605712 
L 727.018705 284.472326 
L 727.894572 284.940412 
L 728.770438 284.317102 
L 729.646305 284.844108 
L 731.398038 287.445049 
L 732.273905 288.455307 
L 734.025638 291.065453 
L 736.653237 293.36244 
L 737.529104 293.370941 
L 738.404971 293.217892 
L 739.280837 294.127516 
L 741.03257 296.423997 
L 741.908437 296.391831 
L 742.784303 296.111923 
L 744.536037 297.330984 
L 746.28777 296.985528 
L 747.163636 296.298743 
L 747.163636 296.298743 
" clip-path="url(#p53ec76d7e9)" style="fill: none; stroke: #0000ff; stroke-width: 1.5; stroke-linecap: square"/>
   </g>
   <g id="line2d_22">
    <path d="M 139.31223 358.595702 
L 141.93983 358.439829 
L 145.443296 357.700397 
L 147.195029 358.023966 
L 148.070896 357.882836 
L 148.946763 357.536628 
L 149.822629 357.672427 
L 153.326095 357.624762 
L 155.077829 358.219838 
L 156.829562 358.005403 
L 157.705428 357.576991 
L 158.581295 357.59227 
L 159.457162 357.493641 
L 160.333028 357.932192 
L 161.208895 358.04872 
L 162.084761 358.372979 
L 162.960628 358.307583 
L 163.836494 357.835412 
L 164.712361 357.851433 
L 166.464094 357.106401 
L 169.091694 357.978472 
L 169.96756 357.874858 
L 170.843427 357.399152 
L 171.719294 357.590214 
L 172.59516 358.162864 
L 173.471027 357.925284 
L 174.346893 357.497702 
L 175.22276 357.637705 
L 176.098627 358.204639 
L 177.85036 358.209861 
L 178.726226 355.273666 
L 179.602093 354.994102 
L 180.477959 356.228652 
L 181.353826 356.419141 
L 182.229693 356.011417 
L 183.105559 355.851343 
L 183.981426 355.306956 
L 184.857292 353.948456 
L 185.733159 353.597902 
L 186.609026 354.211557 
L 187.484892 354.283975 
L 188.360759 354.014926 
L 189.236625 352.834653 
L 190.112492 352.798863 
L 190.988358 351.808045 
L 191.864225 352.321663 
L 192.740092 353.660876 
L 193.615958 352.645059 
L 195.367691 351.046259 
L 196.243558 351.69182 
L 197.119424 351.907028 
L 197.995291 351.402861 
L 198.871158 350.650867 
L 199.747024 350.360729 
L 200.622891 349.577106 
L 201.498757 348.43673 
L 202.374624 348.607359 
L 203.250491 349.620439 
L 204.126357 349.390871 
L 205.002224 349.312075 
L 206.753957 349.343187 
L 207.629823 348.586092 
L 208.50569 348.698223 
L 209.381557 349.524658 
L 210.257423 348.281915 
L 211.13329 346.351438 
L 212.009156 345.704047 
L 212.885023 344.432859 
L 213.760889 339.492419 
L 214.636756 338.475278 
L 215.512623 336.915992 
L 216.388489 335.591055 
L 218.140222 327.543428 
L 219.016089 325.893338 
L 219.891956 323.165122 
L 220.767822 318.819122 
L 221.643689 317.927578 
L 222.519555 316.008162 
L 223.395422 311.703686 
L 224.271288 310.820096 
L 225.147155 306.594291 
L 226.898888 300.761411 
L 227.774755 298.357436 
L 228.650621 296.551324 
L 229.526488 293.400615 
L 230.402354 291.535647 
L 233.029954 283.461277 
L 233.905821 279.966051 
L 234.781687 276.979264 
L 235.657554 272.212467 
L 236.533421 269.9541 
L 237.409287 267.141058 
L 238.285154 265.390319 
L 239.16102 260.482525 
L 240.036887 257.936289 
L 241.78862 253.734984 
L 243.540353 246.169704 
L 244.41622 243.958919 
L 245.292086 242.90656 
L 246.167953 241.434779 
L 247.043819 234.737163 
L 247.919686 233.402566 
L 248.795553 229.283227 
L 249.671419 220.220119 
L 251.423152 212.265533 
L 252.299019 211.414562 
L 253.174886 208.92834 
L 254.050752 208.907288 
L 254.926619 199.091939 
L 255.802485 194.056479 
L 256.678352 195.8721 
L 257.554218 189.527893 
L 258.430085 186.279404 
L 259.305952 186.665025 
L 260.181818 183.553416 
L 261.057685 183.094606 
L 261.933551 184.703753 
L 262.809418 221.655072 
L 263.685284 242.189559 
L 265.437018 250.304617 
L 266.312884 255.304416 
L 267.188751 263.13418 
L 268.064617 268.808447 
L 268.940484 275.684644 
L 269.816351 290.852313 
L 270.692217 318.717948 
L 271.568084 331.076389 
L 272.44395 330.819754 
L 273.319817 330.297514 
L 274.195683 326.196106 
L 275.07155 324.956535 
L 275.947417 327.467252 
L 276.823283 324.205346 
L 277.69915 323.259604 
L 278.575016 320.943862 
L 279.450883 321.538986 
L 280.32675 321.80049 
L 281.202616 320.02673 
L 282.078483 321.557669 
L 282.954349 326.187394 
L 283.830216 326.81309 
L 284.706082 324.51797 
L 285.581949 323.874998 
L 286.457816 328.337459 
L 287.333682 331.411496 
L 289.085415 328.294685 
L 289.961282 330.461475 
L 290.837148 331.799491 
L 291.713015 332.106781 
L 292.588882 333.452813 
L 293.464748 333.221587 
L 294.340615 331.879651 
L 295.216481 332.428171 
L 296.968215 331.019214 
L 297.844081 331.571548 
L 298.719948 330.810162 
L 299.595814 332.904869 
L 300.471681 334.221921 
L 301.347547 335.220948 
M 303.099281 337.842826 
L 303.975147 339.164821 
L 304.851014 338.443015 
L 305.72688 339.857298 
L 306.602747 344.038853 
L 308.35448 344.412169 
L 309.230347 344.892258 
L 310.106213 346.087294 
L 310.98208 345.803473 
L 311.857946 341.033119 
L 312.733813 340.638728 
L 313.60968 342.943864 
L 314.485546 344.186098 
M 316.237279 344.688822 
L 317.113146 345.973945 
L 317.989012 348.211723 
L 318.864879 349.174841 
L 319.740746 350.55967 
L 321.492479 351.79604 
L 324.120078 350.081658 
L 324.995945 348.885837 
L 325.871812 345.503111 
L 326.747678 344.061065 
L 327.623545 342.939932 
L 328.499411 343.244191 
L 329.375278 341.561266 
L 330.251145 341.20816 
L 331.127011 339.907145 
L 332.002878 340.207483 
L 332.878744 341.477469 
L 334.630477 343.222587 
L 335.506344 343.880144 
L 336.382211 347.270646 
L 337.258077 352.513936 
L 338.133944 351.172294 
L 339.00981 349.35136 
L 339.885677 349.307768 
L 340.761543 349.81301 
L 341.63741 350.885326 
M 343.389143 353.519565 
L 344.26501 353.478304 
L 345.140876 351.621418 
L 346.016743 350.549061 
M 347.768476 351.877084 
L 348.644343 351.079414 
L 349.520209 350.784025 
L 350.396076 350.201286 
L 351.271942 349.177551 
L 352.147809 350.394115 
L 353.899542 348.48365 
L 354.775409 348.169283 
L 355.651275 348.260123 
L 356.527142 347.618247 
L 357.403009 345.830531 
L 358.278875 345.27163 
L 359.154742 345.038649 
L 360.030608 344.587184 
L 360.906475 344.401936 
L 361.782341 343.193768 
L 362.658208 343.381309 
L 363.534075 342.982224 
L 364.409941 341.446957 
L 365.285808 340.910034 
L 366.161674 341.992381 
L 367.037541 342.693263 
M 368.789274 342.388937 
L 369.665141 340.525084 
L 370.541007 340.194384 
M 372.29274 341.26427 
L 373.168607 340.841611 
L 374.044474 342.497105 
L 374.92034 341.434469 
L 375.796207 341.100294 
L 376.672073 341.866379 
L 377.54794 341.088679 
M 379.299673 341.227119 
L 380.17554 339.670964 
L 381.051406 339.422458 
L 381.927273 341.355739 
L 382.803139 342.260853 
L 383.679006 342.100315 
M 385.430739 344.474737 
L 386.306606 343.557632 
L 387.182472 341.472319 
L 388.058339 341.302282 
M 390.685939 342.773464 
L 391.561805 340.972719 
L 392.437672 342.39799 
L 393.313538 342.149879 
L 394.189405 340.845148 
L 395.941138 342.153759 
L 396.817005 342.275204 
L 397.692871 342.230873 
L 398.568738 341.624474 
L 399.444604 340.770016 
L 400.320471 340.289334 
L 401.196337 341.550601 
L 402.072204 343.926365 
L 402.948071 345.37126 
L 403.823937 344.412509 
L 404.699804 347.012142 
L 405.57567 347.816167 
L 406.451537 348.416515 
L 407.327404 345.140296 
L 409.079137 342.868426 
L 409.955003 342.720329 
L 410.83087 343.852262 
L 411.706736 344.262691 
L 412.582603 343.790385 
L 413.45847 343.697418 
L 414.334336 343.72449 
L 415.210203 344.406468 
L 416.086069 344.467691 
L 416.961936 344.374422 
L 417.837802 343.857526 
L 418.713669 342.559494 
L 421.341269 342.707567 
L 422.217135 343.271864 
L 423.093002 346.055628 
L 423.968869 344.87731 
L 424.844735 344.427945 
L 425.720602 345.48336 
L 426.596468 345.62606 
L 427.472335 343.475822 
L 428.348201 346.060807 
L 429.224068 347.076276 
L 430.099935 346.231542 
M 434.479267 345.858423 
L 435.355134 346.941479 
L 436.231001 348.894923 
L 437.106867 348.136401 
L 437.982734 346.980932 
L 438.8586 347.85385 
L 439.734467 347.284136 
L 440.610334 347.476506 
M 442.362067 346.997753 
L 443.237933 347.237963 
L 444.1138 346.330556 
L 444.989666 344.813812 
L 445.865533 346.419565 
L 446.7414 346.584254 
L 447.617266 345.650632 
L 448.493133 344.059979 
L 449.368999 344.448814 
L 450.244866 343.97517 
L 451.120733 344.211336 
M 452.872466 342.401066 
L 453.748332 342.508425 
L 454.624199 343.712968 
L 455.500065 342.462859 
L 456.375932 343.071613 
L 457.251799 342.281027 
L 458.127665 339.148054 
L 459.003532 339.280226 
L 459.879398 340.525277 
L 460.755265 339.579172 
L 461.631131 338.308938 
L 462.506998 339.231862 
L 463.382865 339.326659 
L 464.258731 341.445984 
L 465.134598 340.461521 
L 466.010464 340.171422 
L 466.886331 339.71733 
L 467.762198 339.512356 
L 468.638064 340.375613 
L 469.513931 340.35777 
L 470.389797 340.642708 
L 471.265664 339.958157 
L 472.14153 340.03361 
M 473.893264 340.532628 
L 474.76913 340.431098 
L 475.644997 341.102136 
L 476.520863 340.709664 
L 477.39673 339.2155 
L 478.272596 340.111493 
L 479.148463 340.065383 
L 480.02433 338.230592 
M 481.776063 338.233938 
L 482.651929 338.30992 
L 483.527796 337.181703 
L 484.403663 338.058229 
L 486.155396 342.977905 
L 487.907129 343.688913 
L 488.782995 344.986287 
M 492.286462 345.311065 
L 493.162328 345.440944 
L 496.665795 348.214627 
L 497.541661 348.1868 
L 498.417528 347.449183 
L 499.293394 348.515947 
L 500.169261 348.350875 
L 501.045128 347.291316 
L 501.920994 347.756096 
L 502.796861 347.425838 
L 503.672727 348.09305 
L 504.548594 349.041425 
L 505.42446 348.892281 
L 506.300327 349.25312 
L 508.05206 349.091927 
L 508.927927 348.418587 
L 509.803793 349.314921 
L 510.67966 349.62274 
L 511.555526 349.303526 
M 513.30726 349.195528 
L 514.183126 349.352041 
M 515.934859 349.793328 
L 516.810726 349.977975 
L 518.562459 350.928327 
L 519.438326 351.553259 
L 520.314192 351.245748 
L 521.190059 350.762452 
L 522.065925 350.664402 
M 523.817659 351.142358 
L 524.693525 350.884418 
L 525.569392 349.109223 
M 527.321125 349.324244 
L 528.196991 348.668369 
L 529.072858 346.774806 
L 529.948725 346.03977 
L 530.824591 345.969852 
L 532.576324 348.015395 
L 533.452191 348.209362 
L 534.328058 348.61744 
L 535.203924 349.770838 
L 536.079791 350.037825 
L 536.955657 351.883151 
L 537.831524 353.053659 
L 538.70739 353.096621 
L 539.583257 353.400511 
L 540.459124 352.927581 
L 541.33499 353.492169 
L 542.210857 354.407083 
L 543.086723 354.497155 
L 543.96259 353.492441 
L 544.838457 353.258201 
L 545.714323 352.744083 
L 546.59019 353.492502 
L 547.466056 354.554843 
L 548.341923 354.352332 
M 550.093656 353.399055 
L 551.845389 354.935284 
L 553.597122 355.010411 
L 554.472989 354.798518 
L 555.348855 355.205726 
L 556.224722 354.311161 
M 557.976455 355.034942 
L 558.852322 354.532458 
M 560.604055 353.327356 
L 562.355788 353.870842 
L 563.231655 352.438349 
L 564.107521 352.409568 
M 565.859254 352.968449 
L 567.610988 352.603037 
L 568.486854 352.223477 
L 569.362721 352.46925 
L 571.114454 352.368593 
L 572.866187 351.948052 
L 573.742054 351.359046 
L 574.61792 350.208429 
M 576.369653 351.291792 
L 577.24552 351.536828 
L 578.121387 350.4169 
L 578.997253 348.936764 
L 579.87312 349.397776 
L 580.748986 349.029743 
L 581.624853 347.470847 
L 582.500719 347.889924 
L 583.376586 347.366513 
L 584.252453 347.350713 
L 585.128319 347.876744 
L 586.880052 345.897689 
L 587.755919 345.724666 
M 590.383519 344.312503 
L 591.259385 343.84193 
L 592.135252 342.487979 
L 593.011118 342.15331 
L 593.886985 341.996839 
M 595.638718 339.407151 
L 596.514585 340.341569 
L 597.390451 339.891579 
L 598.266318 340.532237 
L 599.142184 337.926376 
L 600.018051 340.235546 
L 600.893918 338.085447 
L 601.769784 338.594815 
L 602.645651 337.881061 
L 603.521517 337.895222 
L 604.397384 337.226222 
L 605.27325 336.827513 
L 606.149117 337.69535 
L 607.024984 335.477256 
L 607.90085 336.111609 
L 608.776717 334.109932 
L 609.652583 333.981273 
L 610.52845 332.265898 
L 611.404317 333.970016 
L 612.280183 333.6621 
L 613.15605 332.52959 
L 614.031916 334.093509 
L 614.907783 333.50402 
L 616.659516 336.723432 
L 617.535383 336.894341 
L 618.411249 335.687442 
L 619.287116 336.65655 
L 621.038849 337.552899 
L 622.790582 333.940407 
L 624.542315 335.781137 
L 625.418182 333.026032 
M 627.169915 337.437231 
L 628.045782 336.031565 
L 629.797515 333.955349 
L 630.673381 334.745774 
L 631.549248 335.969288 
L 632.425114 336.277938 
L 633.300981 335.706981 
L 634.176848 338.060788 
L 635.052714 336.604224 
L 635.928581 336.991907 
M 637.680314 338.509071 
L 638.556181 338.467764 
L 639.432047 336.468214 
L 640.307914 339.672494 
L 641.18378 337.725111 
L 642.059647 333.760284 
L 642.935513 334.838617 
L 643.81138 334.297942 
L 644.687247 331.78023 
L 645.563113 332.396469 
L 646.43898 330.982067 
L 647.314846 331.102416 
L 649.066579 331.657865 
L 649.942446 332.088339 
L 650.818313 330.384481 
L 651.694179 331.178674 
L 652.570046 330.775576 
L 653.445912 330.223521 
L 654.321779 329.982282 
L 655.197646 329.336351 
L 656.073512 329.244365 
L 656.949379 327.952511 
L 657.825245 326.346429 
L 658.701112 327.76544 
L 659.576978 327.565134 
L 660.452845 326.760241 
L 661.328712 327.741232 
L 662.204578 328.1303 
L 663.080445 327.906507 
L 663.956311 326.120285 
L 664.832178 326.893101 
L 665.708044 328.132675 
L 666.583911 326.746891 
L 667.459778 325.773881 
L 668.335644 325.282776 
L 669.211511 324.227445 
M 670.963244 324.700908 
L 671.839111 325.031982 
L 672.714977 325.153258 
L 673.590844 327.576412 
L 674.46671 326.187765 
L 675.342577 327.622293 
L 676.218443 329.73372 
L 677.09431 330.07205 
L 677.970177 330.942949 
L 678.846043 330.450938 
L 679.72191 330.509154 
L 680.597776 331.054404 
L 681.473643 330.656181 
L 682.349509 331.602302 
L 683.225376 332.133037 
L 684.101243 332.871143 
L 684.977109 333.126923 
L 685.852976 332.533695 
L 686.728842 334.557041 
L 687.604709 334.354876 
L 688.480576 333.37666 
L 689.356442 329.389386 
L 690.232309 330.68201 
L 691.108175 330.944658 
L 691.984042 331.706636 
L 692.859908 333.135404 
L 693.735775 332.28972 
L 694.611642 333.12842 
L 695.487508 332.828879 
L 696.363375 333.739434 
L 697.239241 334.398188 
L 698.115108 333.553373 
L 698.990974 332.943704 
L 699.866841 332.907674 
L 700.742708 334.371109 
L 701.618574 334.46612 
L 702.494441 334.96223 
L 703.370307 333.65393 
L 704.246174 332.634351 
L 705.122041 330.137011 
L 705.997907 331.8436 
L 706.873774 331.519855 
L 707.74964 327.137621 
L 708.625507 326.534688 
L 709.501373 328.12691 
L 710.37724 328.49048 
L 711.253107 330.11982 
L 712.128973 329.049707 
L 713.00484 330.037534 
L 713.880706 327.212736 
L 714.756573 329.360566 
L 715.63244 330.269889 
L 716.508306 330.018022 
L 717.384173 327.628913 
L 718.260039 328.225741 
L 719.135906 328.152305 
L 720.011772 327.341315 
L 720.887639 327.64207 
L 721.763506 326.946346 
L 722.639372 327.94691 
L 723.515239 330.716034 
L 724.391105 331.260486 
L 725.266972 331.013612 
L 726.142838 329.225016 
L 727.018705 327.869723 
L 727.894572 322.576879 
L 728.770438 323.15433 
L 729.646305 322.19721 
L 730.522171 322.745247 
L 731.398038 324.84604 
L 733.149771 325.75492 
L 734.025638 327.072653 
L 734.901504 328.077414 
L 735.777371 328.551688 
L 736.653237 329.210717 
L 738.404971 329.798666 
L 739.280837 330.994681 
L 740.156704 330.274865 
L 741.03257 330.250031 
L 741.908437 333.164495 
L 742.784303 332.520017 
M 744.536037 334.190651 
L 745.411903 334.471102 
L 746.28777 334.19165 
L 747.163636 332.838814 
L 747.163636 332.838814 
" clip-path="url(#p53ec76d7e9)" style="fill: none; stroke: #ffa500; stroke-width: 1.5; stroke-linecap: square"/>
   </g>
   <g id="patch_3">
    <path d="M 108 370.734545 
L 108 103.68 
" style="fill: none; stroke: #000000; stroke-width: 0.8; stroke-linejoin: miter; stroke-linecap: square"/>
   </g>
   <g id="patch_4">
    <path d="M 777.6 370.734545 
L 777.6 103.68 
" style="fill: none; stroke: #000000; stroke-width: 0.8; stroke-linejoin: miter; stroke-linecap: square"/>
   </g>
   <g id="patch_5">
    <path d="M 108 370.734545 
L 777.6 370.734545 
" style="fill: none; stroke: #000000; stroke-width: 0.8; stroke-linejoin: miter; stroke-linecap: square"/>
   </g>
   <g id="patch_6">
    <path d="M 108 103.68 
L 777.6 103.68 
" style="fill: none; stroke: #000000; stroke-width: 0.8; stroke-linejoin: miter; stroke-linecap: square"/>
   </g>
  </g>
  <g id="axes_2">
   <g id="patch_7">
    <path d="M 108 691.2 
L 777.6 691.2 
L 777.6 424.145455 
L 108 424.145455 
z
" style="fill: #ffffff"/>
   </g>
   <g id="matplotlib.axis_3">
    <g id="xtick_12">
     <g id="line2d_23">
      <g>
       <use xlink:href="#m4fe048f762" x="129.677698" y="691.2" style="stroke: #000000; stroke-width: 0.8"/>
      </g>
     </g>
     <g id="text_10">
      <!-- 09-02 04 -->
      <g transform="translate(89.70054 727.260909)rotate(-30)scale(0.1 -0.1)">
       <defs>
        <path id="DejaVuSans-39" d="M 703 97 
L 703 672 
Q 941 559 1184 500 
Q 1428 441 1663 441 
Q 2288 441 2617 861 
Q 2947 1281 2994 2138 
Q 2813 1869 2534 1725 
Q 2256 1581 1919 1581 
Q 1219 1581 811 2004 
Q 403 2428 403 3163 
Q 403 3881 828 4315 
Q 1253 4750 1959 4750 
Q 2769 4750 3195 4129 
Q 3622 3509 3622 2328 
Q 3622 1225 3098 567 
Q 2575 -91 1691 -91 
Q 1453 -91 1209 -44 
Q 966 3 703 97 
z
M 1959 2075 
Q 2384 2075 2632 2365 
Q 2881 2656 2881 3163 
Q 2881 3666 2632 3958 
Q 2384 4250 1959 4250 
Q 1534 4250 1286 3958 
Q 1038 3666 1038 3163 
Q 1038 2656 1286 2365 
Q 1534 2075 1959 2075 
z
" transform="scale(0.015625)"/>
        <path id="DejaVuSans-2d" d="M 313 2009 
L 1997 2009 
L 1997 1497 
L 313 1497 
L 313 2009 
z
" transform="scale(0.015625)"/>
        <path id="DejaVuSans-20" transform="scale(0.015625)"/>
        <path id="DejaVuSans-34" d="M 2419 4116 
L 825 1625 
L 2419 1625 
L 2419 4116 
z
M 2253 4666 
L 3047 4666 
L 3047 1625 
L 3713 1625 
L 3713 1100 
L 3047 1100 
L 3047 0 
L 2419 0 
L 2419 1100 
L 313 1100 
L 313 1709 
L 2253 4666 
z
" transform="scale(0.015625)"/>
       </defs>
       <use xlink:href="#DejaVuSans-30"/>
       <use xlink:href="#DejaVuSans-39" x="63.623047"/>
       <use xlink:href="#DejaVuSans-2d" x="127.246094"/>
       <use xlink:href="#DejaVuSans-30" x="163.330078"/>
       <use xlink:href="#DejaVuSans-32" x="226.953125"/>
       <use xlink:href="#DejaVuSans-20" x="290.576172"/>
       <use xlink:href="#DejaVuSans-30" x="322.363281"/>
       <use xlink:href="#DejaVuSans-34" x="385.986328"/>
      </g>
     </g>
    </g>
    <g id="xtick_13">
     <g id="line2d_24">
      <g>
       <use xlink:href="#m4fe048f762" x="234.781687" y="691.2" style="stroke: #000000; stroke-width: 0.8"/>
      </g>
     </g>
     <g id="text_11">
      <!-- 09-02 06 -->
      <g transform="translate(194.80453 727.260909)rotate(-30)scale(0.1 -0.1)">
       <defs>
        <path id="DejaVuSans-36" d="M 2113 2584 
Q 1688 2584 1439 2293 
Q 1191 2003 1191 1497 
Q 1191 994 1439 701 
Q 1688 409 2113 409 
Q 2538 409 2786 701 
Q 3034 994 3034 1497 
Q 3034 2003 2786 2293 
Q 2538 2584 2113 2584 
z
M 3366 4563 
L 3366 3988 
Q 3128 4100 2886 4159 
Q 2644 4219 2406 4219 
Q 1781 4219 1451 3797 
Q 1122 3375 1075 2522 
Q 1259 2794 1537 2939 
Q 1816 3084 2150 3084 
Q 2853 3084 3261 2657 
Q 3669 2231 3669 1497 
Q 3669 778 3244 343 
Q 2819 -91 2113 -91 
Q 1303 -91 875 529 
Q 447 1150 447 2328 
Q 447 3434 972 4092 
Q 1497 4750 2381 4750 
Q 2619 4750 2861 4703 
Q 3103 4656 3366 4563 
z
" transform="scale(0.015625)"/>
       </defs>
       <use xlink:href="#DejaVuSans-30"/>
       <use xlink:href="#DejaVuSans-39" x="63.623047"/>
       <use xlink:href="#DejaVuSans-2d" x="127.246094"/>
       <use xlink:href="#DejaVuSans-30" x="163.330078"/>
       <use xlink:href="#DejaVuSans-32" x="226.953125"/>
       <use xlink:href="#DejaVuSans-20" x="290.576172"/>
       <use xlink:href="#DejaVuSans-30" x="322.363281"/>
       <use xlink:href="#DejaVuSans-36" x="385.986328"/>
      </g>
     </g>
    </g>
    <g id="xtick_14">
     <g id="line2d_25">
      <g>
       <use xlink:href="#m4fe048f762" x="339.885677" y="691.2" style="stroke: #000000; stroke-width: 0.8"/>
      </g>
     </g>
     <g id="text_12">
      <!-- 09-02 08 -->
      <g transform="translate(299.908519 727.260909)rotate(-30)scale(0.1 -0.1)">
       <defs>
        <path id="DejaVuSans-38" d="M 2034 2216 
Q 1584 2216 1326 1975 
Q 1069 1734 1069 1313 
Q 1069 891 1326 650 
Q 1584 409 2034 409 
Q 2484 409 2743 651 
Q 3003 894 3003 1313 
Q 3003 1734 2745 1975 
Q 2488 2216 2034 2216 
z
M 1403 2484 
Q 997 2584 770 2862 
Q 544 3141 544 3541 
Q 544 4100 942 4425 
Q 1341 4750 2034 4750 
Q 2731 4750 3128 4425 
Q 3525 4100 3525 3541 
Q 3525 3141 3298 2862 
Q 3072 2584 2669 2484 
Q 3125 2378 3379 2068 
Q 3634 1759 3634 1313 
Q 3634 634 3220 271 
Q 2806 -91 2034 -91 
Q 1263 -91 848 271 
Q 434 634 434 1313 
Q 434 1759 690 2068 
Q 947 2378 1403 2484 
z
M 1172 3481 
Q 1172 3119 1398 2916 
Q 1625 2713 2034 2713 
Q 2441 2713 2670 2916 
Q 2900 3119 2900 3481 
Q 2900 3844 2670 4047 
Q 2441 4250 2034 4250 
Q 1625 4250 1398 4047 
Q 1172 3844 1172 3481 
z
" transform="scale(0.015625)"/>
       </defs>
       <use xlink:href="#DejaVuSans-30"/>
       <use xlink:href="#DejaVuSans-39" x="63.623047"/>
       <use xlink:href="#DejaVuSans-2d" x="127.246094"/>
       <use xlink:href="#DejaVuSans-30" x="163.330078"/>
       <use xlink:href="#DejaVuSans-32" x="226.953125"/>
       <use xlink:href="#DejaVuSans-20" x="290.576172"/>
       <use xlink:href="#DejaVuSans-30" x="322.363281"/>
       <use xlink:href="#DejaVuSans-38" x="385.986328"/>
      </g>
     </g>
    </g>
    <g id="xtick_15">
     <g id="line2d_26">
      <g>
       <use xlink:href="#m4fe048f762" x="444.989666" y="691.2" style="stroke: #000000; stroke-width: 0.8"/>
      </g>
     </g>
     <g id="text_13">
      <!-- 09-02 10 -->
      <g transform="translate(405.012509 727.260909)rotate(-30)scale(0.1 -0.1)">
       <use xlink:href="#DejaVuSans-30"/>
       <use xlink:href="#DejaVuSans-39" x="63.623047"/>
       <use xlink:href="#DejaVuSans-2d" x="127.246094"/>
       <use xlink:href="#DejaVuSans-30" x="163.330078"/>
       <use xlink:href="#DejaVuSans-32" x="226.953125"/>
       <use xlink:href="#DejaVuSans-20" x="290.576172"/>
       <use xlink:href="#DejaVuSans-31" x="322.363281"/>
       <use xlink:href="#DejaVuSans-30" x="385.986328"/>
      </g>
     </g>
    </g>
    <g id="xtick_16">
     <g id="line2d_27">
      <g>
       <use xlink:href="#m4fe048f762" x="550.093656" y="691.2" style="stroke: #000000; stroke-width: 0.8"/>
      </g>
     </g>
     <g id="text_14">
      <!-- 09-02 12 -->
      <g transform="translate(510.116498 727.260909)rotate(-30)scale(0.1 -0.1)">
       <use xlink:href="#DejaVuSans-30"/>
       <use xlink:href="#DejaVuSans-39" x="63.623047"/>
       <use xlink:href="#DejaVuSans-2d" x="127.246094"/>
       <use xlink:href="#DejaVuSans-30" x="163.330078"/>
       <use xlink:href="#DejaVuSans-32" x="226.953125"/>
       <use xlink:href="#DejaVuSans-20" x="290.576172"/>
       <use xlink:href="#DejaVuSans-31" x="322.363281"/>
       <use xlink:href="#DejaVuSans-32" x="385.986328"/>
      </g>
     </g>
    </g>
    <g id="xtick_17">
     <g id="line2d_28">
      <g>
       <use xlink:href="#m4fe048f762" x="655.197646" y="691.2" style="stroke: #000000; stroke-width: 0.8"/>
      </g>
     </g>
     <g id="text_15">
      <!-- 09-02 14 -->
      <g transform="translate(615.220488 727.260909)rotate(-30)scale(0.1 -0.1)">
       <use xlink:href="#DejaVuSans-30"/>
       <use xlink:href="#DejaVuSans-39" x="63.623047"/>
       <use xlink:href="#DejaVuSans-2d" x="127.246094"/>
       <use xlink:href="#DejaVuSans-30" x="163.330078"/>
       <use xlink:href="#DejaVuSans-32" x="226.953125"/>
       <use xlink:href="#DejaVuSans-20" x="290.576172"/>
       <use xlink:href="#DejaVuSans-31" x="322.363281"/>
       <use xlink:href="#DejaVuSans-34" x="385.986328"/>
      </g>
     </g>
    </g>
    <g id="xtick_18">
     <g id="line2d_29">
      <g>
       <use xlink:href="#m4fe048f762" x="760.301635" y="691.2" style="stroke: #000000; stroke-width: 0.8"/>
      </g>
     </g>
     <g id="text_16">
      <!-- 09-02 16 -->
      <g transform="translate(720.324477 727.260909)rotate(-30)scale(0.1 -0.1)">
       <use xlink:href="#DejaVuSans-30"/>
       <use xlink:href="#DejaVuSans-39" x="63.623047"/>
       <use xlink:href="#DejaVuSans-2d" x="127.246094"/>
       <use xlink:href="#DejaVuSans-30" x="163.330078"/>
       <use xlink:href="#DejaVuSans-32" x="226.953125"/>
       <use xlink:href="#DejaVuSans-20" x="290.576172"/>
       <use xlink:href="#DejaVuSans-31" x="322.363281"/>
       <use xlink:href="#DejaVuSans-36" x="385.986328"/>
      </g>
     </g>
    </g>
    <g id="xtick_19">
     <g id="line2d_30">
      <g>
       <use xlink:href="#m8d881e7351" x="171.719294" y="691.2" style="stroke: #000000; stroke-width: 0.6"/>
      </g>
     </g>
    </g>
    <g id="xtick_20">
     <g id="line2d_31">
      <g>
       <use xlink:href="#m8d881e7351" x="297.844081" y="691.2" style="stroke: #000000; stroke-width: 0.6"/>
      </g>
     </g>
    </g>
    <g id="xtick_21">
     <g id="line2d_32">
      <g>
       <use xlink:href="#m8d881e7351" x="423.968869" y="691.2" style="stroke: #000000; stroke-width: 0.6"/>
      </g>
     </g>
    </g>
    <g id="xtick_22">
     <g id="line2d_33">
      <g>
       <use xlink:href="#m8d881e7351" x="676.218443" y="691.2" style="stroke: #000000; stroke-width: 0.6"/>
      </g>
     </g>
    </g>
   </g>
   <g id="matplotlib.axis_4">
    <g id="ytick_10">
     <g id="line2d_34">
      <g>
       <use xlink:href="#m7f235b7ea9" x="108" y="681.433323" style="stroke: #000000; stroke-width: 0.8"/>
      </g>
     </g>
     <g id="text_17">
      <!-- 0 -->
      <g transform="translate(94.6375 685.232542)scale(0.1 -0.1)">
       <use xlink:href="#DejaVuSans-30"/>
      </g>
     </g>
    </g>
    <g id="ytick_11">
     <g id="line2d_35">
      <g>
       <use xlink:href="#m7f235b7ea9" x="108" y="637.952191" style="stroke: #000000; stroke-width: 0.8"/>
      </g>
     </g>
     <g id="text_18">
      <!-- 10 -->
      <g transform="translate(88.275 641.75141)scale(0.1 -0.1)">
       <use xlink:href="#DejaVuSans-31"/>
       <use xlink:href="#DejaVuSans-30" x="63.623047"/>
      </g>
     </g>
    </g>
    <g id="ytick_12">
     <g id="line2d_36">
      <g>
       <use xlink:href="#m7f235b7ea9" x="108" y="594.471059" style="stroke: #000000; stroke-width: 0.8"/>
      </g>
     </g>
     <g id="text_19">
      <!-- 20 -->
      <g transform="translate(88.275 598.270278)scale(0.1 -0.1)">
       <use xlink:href="#DejaVuSans-32"/>
       <use xlink:href="#DejaVuSans-30" x="63.623047"/>
      </g>
     </g>
    </g>
    <g id="ytick_13">
     <g id="line2d_37">
      <g>
       <use xlink:href="#m7f235b7ea9" x="108" y="550.989927" style="stroke: #000000; stroke-width: 0.8"/>
      </g>
     </g>
     <g id="text_20">
      <!-- 30 -->
      <g transform="translate(88.275 554.789145)scale(0.1 -0.1)">
       <defs>
        <path id="DejaVuSans-33" d="M 2597 2516 
Q 3050 2419 3304 2112 
Q 3559 1806 3559 1356 
Q 3559 666 3084 287 
Q 2609 -91 1734 -91 
Q 1441 -91 1130 -33 
Q 819 25 488 141 
L 488 750 
Q 750 597 1062 519 
Q 1375 441 1716 441 
Q 2309 441 2620 675 
Q 2931 909 2931 1356 
Q 2931 1769 2642 2001 
Q 2353 2234 1838 2234 
L 1294 2234 
L 1294 2753 
L 1863 2753 
Q 2328 2753 2575 2939 
Q 2822 3125 2822 3475 
Q 2822 3834 2567 4026 
Q 2313 4219 1838 4219 
Q 1578 4219 1281 4162 
Q 984 4106 628 3988 
L 628 4550 
Q 988 4650 1302 4700 
Q 1616 4750 1894 4750 
Q 2613 4750 3031 4423 
Q 3450 4097 3450 3541 
Q 3450 3153 3228 2886 
Q 3006 2619 2597 2516 
z
" transform="scale(0.015625)"/>
       </defs>
       <use xlink:href="#DejaVuSans-33"/>
       <use xlink:href="#DejaVuSans-30" x="63.623047"/>
      </g>
     </g>
    </g>
    <g id="ytick_14">
     <g id="line2d_38">
      <g>
       <use xlink:href="#m7f235b7ea9" x="108" y="507.508794" style="stroke: #000000; stroke-width: 0.8"/>
      </g>
     </g>
     <g id="text_21">
      <!-- 40 -->
      <g transform="translate(88.275 511.308013)scale(0.1 -0.1)">
       <use xlink:href="#DejaVuSans-34"/>
       <use xlink:href="#DejaVuSans-30" x="63.623047"/>
      </g>
     </g>
    </g>
    <g id="ytick_15">
     <g id="line2d_39">
      <g>
       <use xlink:href="#m7f235b7ea9" x="108" y="464.027662" style="stroke: #000000; stroke-width: 0.8"/>
      </g>
     </g>
     <g id="text_22">
      <!-- 50 -->
      <g transform="translate(88.275 467.826881)scale(0.1 -0.1)">
       <use xlink:href="#DejaVuSans-35"/>
       <use xlink:href="#DejaVuSans-30" x="63.623047"/>
      </g>
     </g>
    </g>
   </g>
   <g id="line2d_40">
    <path d="M 139.31223 679.061157 
L 140.188097 678.117244 
L 141.063963 676.982276 
L 142.815697 675.66858 
L 144.56743 674.704629 
L 145.443296 674.270637 
L 147.195029 672.324832 
L 148.070896 672.077936 
L 148.946763 672.174222 
L 150.698496 670.14766 
L 151.574362 669.282175 
L 152.450229 668.882493 
L 153.326095 668.231272 
L 155.077829 665.188622 
L 155.953695 665.133627 
L 156.829562 665.220306 
L 157.705428 665.75534 
L 158.581295 664.979267 
L 159.457162 664.573173 
L 160.333028 662.801999 
L 161.208895 661.795537 
L 162.084761 659.813653 
L 162.960628 659.756539 
L 163.836494 661.698482 
L 164.712361 661.154462 
L 166.464094 662.383445 
L 167.339961 661.191669 
L 169.091694 658.027285 
L 169.96756 658.344741 
L 170.843427 659.680973 
L 171.719294 658.516214 
L 172.59516 655.603674 
L 173.471027 656.173279 
L 174.346893 657.822812 
L 175.22276 657.164931 
L 176.098627 654.074016 
L 176.974493 653.658287 
L 177.85036 652.239296 
L 178.726226 660.747063 
L 179.602093 661.294938 
L 180.477959 657.872417 
L 181.353826 656.894019 
L 182.229693 658.232392 
L 183.105559 659.0414 
L 183.981426 659.169395 
L 184.857292 660.72334 
L 185.733159 661.418974 
L 186.609026 659.76 
L 187.484892 658.534382 
L 188.360759 658.27132 
L 189.236625 659.264487 
L 190.112492 658.667624 
L 190.988358 659.366406 
L 191.864225 659.344548 
L 192.740092 657.84085 
L 193.615958 659.991844 
L 194.491825 660.420659 
L 195.367691 659.705608 
L 196.243558 657.80195 
L 197.119424 657.647082 
L 197.995291 658.739016 
L 198.871158 659.077105 
L 199.747024 658.596272 
L 200.622891 658.362596 
L 201.498757 658.502012 
L 202.374624 659.511296 
L 204.126357 660.609117 
L 205.002224 660.86008 
L 205.87809 660.813317 
L 206.753957 660.274975 
L 207.629823 660.947957 
L 208.50569 660.730752 
L 209.381557 660.141893 
L 210.257423 659.343765 
L 211.13329 657.089358 
L 212.009156 656.698957 
L 212.885023 655.502125 
L 213.760889 652.065246 
L 214.636756 651.319332 
L 215.512623 649.360068 
L 216.388489 647.682592 
L 217.264356 641.394701 
L 218.140222 636.46813 
L 219.016089 634.711695 
L 219.891956 629.714482 
L 220.767822 622.365582 
L 221.643689 620.630512 
L 222.519555 617.260643 
L 223.395422 610.671302 
L 224.271288 608.518342 
L 225.147155 601.907991 
L 226.898888 591.718955 
L 227.774755 590.003039 
L 228.650621 587.834224 
L 229.526488 586.535802 
L 230.402354 587.29941 
L 231.278221 586.577657 
L 232.154088 583.036428 
L 233.029954 584.892976 
L 233.905821 579.783526 
L 234.781687 581.815481 
L 235.657554 581.69753 
L 236.533421 578.837971 
L 237.409287 576.944388 
L 238.285154 573.07478 
L 239.16102 567.470124 
L 240.036887 560.712645 
L 240.912753 559.613551 
L 241.78862 550.533037 
L 242.664487 547.220752 
L 243.540353 550.711523 
L 244.41622 551.100862 
L 245.292086 547.573823 
L 246.167953 530.276832 
L 247.043819 527.276879 
L 247.919686 526.621978 
L 248.795553 520.297438 
L 249.671419 534.046095 
L 250.547286 527.602617 
L 251.423152 528.25164 
L 252.299019 524.913167 
L 253.174886 515.242973 
L 254.050752 498.533518 
L 254.926619 501.469449 
L 255.802485 500.570113 
L 256.678352 478.522377 
L 257.554218 482.249668 
L 258.430085 473.354866 
L 259.305952 459.550761 
L 260.181818 464.722625 
L 261.057685 446.855004 
L 261.933551 436.284298 
L 262.809418 498.705252 
L 263.685284 496.144966 
L 264.561151 505.129495 
L 265.437018 500.83341 
L 266.312884 477.511845 
L 267.188751 471.285395 
L 268.064617 496.880077 
L 268.940484 486.699305 
L 269.816351 480.24002 
L 270.692217 459.151746 
L 271.568084 449.083892 
L 272.44395 459.868353 
L 273.319817 466.586124 
L 274.195683 468.915229 
L 275.07155 469.924284 
L 275.947417 464.264052 
L 276.823283 470.208569 
L 278.575016 487.615661 
L 279.450883 488.57969 
L 280.32675 486.531485 
L 281.202616 482.356081 
L 282.078483 480.167716 
L 282.954349 478.909935 
L 283.830216 484.782468 
L 284.706082 493.084157 
L 285.581949 496.365907 
L 287.333682 484.468795 
L 288.209549 485.180268 
L 289.085415 489.982017 
L 289.961282 489.430896 
L 290.837148 489.77343 
L 291.713015 491.562567 
L 292.588882 492.673839 
L 293.464748 494.31828 
L 294.340615 499.227277 
L 295.216481 501.342552 
L 296.968215 512.709786 
L 297.844081 511.717048 
L 298.719948 517.511425 
L 299.595814 516.480836 
L 300.471681 514.591872 
L 301.347547 517.080975 
M 303.099281 518.9689 
L 303.975147 518.2698 
L 304.851014 521.309709 
L 305.72688 519.999414 
L 306.602747 512.774886 
L 307.478613 513.154109 
L 308.35448 514.499078 
L 309.230347 515.274225 
L 310.106213 514.150421 
L 310.98208 515.777778 
L 311.857946 526.384839 
L 312.733813 528.824366 
L 313.60968 525.083192 
L 314.485546 522.682522 
M 316.237279 522.782809 
L 317.113146 519.998314 
L 317.989012 514.930725 
L 318.864879 513.62431 
L 319.740746 509.162412 
L 320.616612 509.283679 
L 321.492479 507.193027 
L 324.120078 514.384334 
L 324.995945 518.989029 
L 325.871812 528.370999 
L 326.747678 533.968483 
L 327.623545 537.019734 
L 328.499411 536.758966 
L 329.375278 541.340431 
L 330.251145 541.975242 
L 331.127011 543.312849 
L 332.002878 541.419609 
L 332.878744 539.072376 
L 333.754611 537.565808 
L 334.630477 535.731238 
L 335.506344 533.616488 
L 336.382211 524.447386 
L 337.258077 508.892538 
L 338.133944 511.934651 
L 339.00981 517.244959 
L 339.885677 517.807185 
L 340.761543 516.718217 
L 341.63741 513.522122 
M 343.389143 505.629802 
L 344.26501 505.671119 
L 345.140876 511.370982 
L 346.016743 514.96161 
M 347.768476 513.16499 
L 348.644343 515.916571 
L 349.520209 517.443204 
L 350.396076 519.99651 
L 351.271942 523.683423 
L 352.147809 521.876709 
L 353.023676 525.755535 
L 353.899542 528.697838 
L 354.775409 530.173489 
L 355.651275 531.174859 
L 356.527142 533.143769 
L 357.403009 537.026722 
L 359.154742 536.933481 
L 360.030608 537.299174 
L 360.906475 537.430113 
L 361.782341 539.372873 
L 362.658208 537.171803 
L 363.534075 536.30026 
L 364.409941 537.75468 
L 365.285808 538.139308 
L 367.037541 533.221894 
M 368.789274 531.771966 
L 369.665141 533.668612 
L 370.541007 534.374797 
M 372.29274 530.731001 
L 373.168607 530.106852 
L 374.044474 527.327572 
L 374.92034 528.63618 
L 375.796207 529.312949 
L 376.672073 528.35429 
L 377.54794 527.830201 
M 379.299673 525.937368 
L 380.17554 526.34295 
L 381.051406 525.156989 
L 381.927273 522.437569 
L 382.803139 518.350829 
L 383.679006 517.418741 
M 385.430739 512.763344 
L 386.306606 513.256397 
L 387.182472 516.838209 
L 388.058339 516.52725 
M 390.685939 513.405345 
L 391.561805 516.108523 
L 392.437672 512.91012 
L 393.313538 512.18653 
L 394.189405 513.643437 
L 395.065271 510.003235 
L 395.941138 508.584861 
L 396.817005 508.629777 
L 397.692871 507.771865 
L 398.568738 509.103235 
L 400.320471 520.717679 
L 401.196337 521.85706 
L 402.072204 520.66238 
L 402.948071 517.391157 
L 403.823937 517.129531 
L 404.699804 509.784724 
L 406.451537 504.465588 
L 407.327404 510.994222 
L 408.20327 513.686573 
L 409.079137 515.497197 
L 409.955003 516.676931 
L 410.83087 515.082674 
L 411.706736 514.883513 
L 412.582603 516.035711 
L 413.45847 516.569279 
L 414.334336 516.718304 
L 415.210203 516.249753 
L 416.086069 517.63741 
L 416.961936 520.37224 
L 417.837802 525.73104 
L 418.713669 530.343577 
L 419.589536 530.890185 
L 420.465402 533.238409 
L 421.341269 534.403951 
L 422.217135 533.802278 
L 423.093002 529.108587 
L 423.968869 531.78984 
L 424.844735 532.278266 
L 425.720602 528.89749 
L 426.596468 528.140436 
L 427.472335 531.064064 
L 428.348201 524.771532 
L 429.224068 521.535621 
L 430.099935 523.284507 
M 434.479267 524.222393 
L 435.355134 521.824201 
L 436.231001 516.740005 
L 437.106867 517.917746 
L 437.982734 520.431825 
L 438.8586 518.121231 
L 439.734467 518.288007 
L 440.610334 517.9968 
M 442.362067 516.961104 
L 443.237933 515.274066 
L 444.1138 516.453124 
L 444.989666 518.973706 
L 445.865533 515.575939 
L 446.7414 514.687995 
L 447.617266 516.122431 
L 448.493133 518.327179 
L 449.368999 517.731459 
L 451.120733 517.050112 
M 452.872466 521.742377 
L 453.748332 521.376554 
L 454.624199 518.659743 
L 455.500065 521.105629 
L 456.375932 520.214083 
L 457.251799 520.21305 
L 458.127665 523.099311 
L 459.003532 521.768421 
L 459.879398 518.307906 
L 460.755265 519.860691 
L 461.631131 518.689789 
L 462.506998 516.528351 
L 463.382865 516.644238 
L 464.258731 513.738191 
L 465.134598 514.755308 
L 467.762198 513.268503 
L 468.638064 511.409068 
L 469.513931 510.896877 
L 471.265664 512.056858 
L 472.14153 512.418928 
M 473.893264 511.418945 
L 474.76913 511.279413 
L 475.644997 512.781042 
L 476.520863 513.737009 
L 477.39673 515.326744 
L 478.272596 513.222966 
L 479.148463 512.429008 
L 480.02433 515.824274 
M 481.776063 519.791545 
L 482.651929 524.120434 
L 483.527796 533.287127 
L 484.403663 534.256947 
L 485.279529 531.852185 
L 486.155396 528.697487 
L 487.907129 525.39267 
L 488.782995 522.444646 
M 492.286462 525.751086 
L 493.162328 526.163918 
L 494.038195 525.766008 
L 494.914061 525.003713 
L 495.789928 524.608548 
L 496.665795 523.574596 
L 497.541661 524.155159 
L 498.417528 526.015842 
L 499.293394 524.418897 
L 500.169261 525.484665 
L 501.045128 528.103792 
L 501.920994 527.524601 
L 502.796861 528.909732 
L 504.548594 525.246635 
L 505.42446 525.386824 
L 506.300327 524.976032 
L 507.176194 525.607479 
L 508.05206 526.44961 
L 508.927927 527.977381 
L 509.803793 526.655051 
L 510.67966 526.371386 
L 511.555526 527.449538 
M 513.30726 528.401804 
L 514.183126 528.276896 
M 515.934859 528.075563 
L 517.686593 525.786277 
L 518.562459 523.80703 
L 519.438326 522.717902 
L 520.314192 523.486961 
L 521.190059 525.212317 
L 522.065925 525.14908 
M 523.817659 524.800967 
L 524.693525 525.159627 
L 525.569392 528.973613 
M 527.321125 527.829342 
L 528.196991 529.08267 
L 529.072858 532.680969 
L 529.948725 535.23759 
L 530.824591 535.937465 
L 531.700458 534.97146 
L 532.576324 533.746732 
L 533.452191 533.9671 
L 534.328058 533.430618 
L 535.203924 531.354193 
L 536.079791 530.788289 
L 536.955657 527.512055 
L 537.831524 525.268356 
L 538.70739 525.48462 
L 539.583257 524.897067 
L 540.459124 526.018874 
L 541.33499 524.852947 
L 542.210857 522.72683 
L 543.086723 523.069626 
L 543.96259 526.104377 
L 544.838457 527.473116 
L 545.714323 528.588313 
L 547.466056 524.92478 
L 548.341923 526.197133 
M 550.093656 529.164554 
L 550.969523 527.88519 
L 551.845389 526.878899 
L 552.721256 527.154277 
L 553.597122 527.595994 
L 554.472989 528.188408 
L 555.348855 527.915406 
L 556.224722 530.261254 
M 557.976455 528.832528 
L 558.852322 530.350894 
M 560.604055 534.476785 
L 561.479922 534.711016 
L 562.355788 535.399172 
L 563.231655 539.043585 
L 564.107521 540.089669 
M 565.859254 541.223044 
L 566.735121 542.413757 
L 567.610988 543.953214 
L 568.486854 546.493201 
L 570.238587 547.361316 
L 571.114454 548.281842 
L 571.99032 549.839325 
L 572.866187 550.965545 
L 573.742054 553.473889 
L 574.61792 555.348256 
M 576.369653 553.770855 
L 577.24552 552.89244 
L 578.997253 557.074532 
L 579.87312 556.752219 
L 580.748986 557.989136 
L 581.624853 559.991298 
L 582.500719 559.928301 
L 583.376586 560.782601 
L 584.252453 560.841626 
L 585.128319 559.924542 
L 586.004186 561.30816 
L 586.880052 562.3413 
L 587.755919 562.605642 
M 590.383519 563.536152 
L 591.259385 563.666148 
L 592.135252 565.090319 
L 593.011118 564.861804 
L 593.886985 564.219361 
M 595.638718 565.723793 
L 596.514585 565.587043 
L 597.390451 564.535043 
L 598.266318 564.549336 
L 599.142184 563.717315 
L 600.018051 562.555776 
L 600.893918 561.97486 
L 601.769784 561.563142 
L 602.645651 561.29733 
L 603.521517 560.849913 
L 604.397384 559.203801 
L 605.27325 560.070604 
L 606.149117 557.844227 
L 607.024984 557.705916 
L 607.90085 558.198124 
L 608.776717 557.974487 
L 609.652583 561.489033 
L 610.52845 565.693789 
L 611.404317 564.277947 
L 612.280183 565.543363 
L 613.15605 567.470013 
L 614.031916 568.230032 
L 614.907783 571.861293 
L 615.783649 571.504856 
L 616.659516 569.136691 
L 617.535383 568.73793 
L 618.411249 570.349516 
L 619.287116 565.772416 
L 620.162982 563.571173 
L 621.038849 564.30136 
L 621.914716 568.300757 
L 622.790582 568.20094 
L 623.666449 572.758542 
L 624.542315 574.136848 
L 625.418182 573.366541 
M 627.169915 570.194169 
L 628.045782 570.60142 
L 628.921648 573.719047 
L 629.797515 570.727391 
L 631.549248 579.131369 
L 632.425114 581.123919 
L 633.300981 580.34542 
L 634.176848 578.923367 
L 635.052714 578.702217 
L 635.928581 577.823246 
M 637.680314 571.693237 
L 638.556181 569.122822 
L 639.432047 569.183533 
L 640.307914 565.535853 
L 641.18378 565.819012 
L 642.935513 571.690974 
L 643.81138 575.515589 
L 644.687247 576.963105 
L 645.563113 578.698725 
L 646.43898 578.965943 
L 648.190713 576.893456 
L 650.818313 569.495833 
L 651.694179 565.71468 
L 652.570046 564.818317 
L 653.445912 561.818874 
L 654.321779 555.717742 
L 655.197646 554.866633 
L 656.073512 551.396963 
L 656.949379 550.54671 
L 657.825245 551.380708 
L 659.576978 555.389148 
L 660.452845 555.434941 
L 661.328712 553.269792 
L 662.204578 553.99841 
L 663.080445 551.27944 
L 663.956311 552.557278 
L 664.832178 550.872184 
L 665.708044 545.296054 
L 666.583911 546.062911 
L 667.459778 548.258497 
L 668.335644 545.629973 
L 669.211511 543.381757 
M 670.963244 536.1295 
L 671.839111 534.812736 
L 673.590844 530.475134 
L 674.46671 538.276107 
L 675.342577 539.037081 
L 676.218443 537.691875 
L 677.09431 537.244207 
L 677.970177 533.166982 
L 678.846043 534.912707 
L 679.72191 533.679714 
L 680.597776 529.559079 
L 681.473643 528.658622 
L 682.349509 523.229213 
L 683.225376 519.643983 
L 684.101243 518.076187 
L 684.977109 519.44598 
L 685.852976 524.827916 
L 686.728842 520.030175 
L 687.604709 517.505283 
L 688.480576 517.292355 
L 689.356442 520.513055 
L 690.232309 521.928359 
L 691.108175 522.199694 
L 691.984042 521.995843 
L 692.859908 519.358483 
L 693.735775 521.368617 
L 694.611642 521.147232 
L 695.487508 524.748686 
L 696.363375 521.754061 
L 697.239241 516.098717 
L 698.115108 512.2484 
L 698.990974 518.255853 
L 699.866841 522.562576 
L 700.742708 524.073897 
L 701.618574 521.586812 
L 702.494441 517.819941 
L 703.370307 520.316435 
L 704.246174 526.805149 
L 705.122041 531.895293 
L 705.997907 531.349984 
L 706.873774 530.976801 
L 707.74964 537.447144 
L 708.625507 546.192334 
L 709.501373 547.047374 
L 710.37724 549.201451 
L 711.253107 547.16707 
L 712.128973 548.326225 
L 713.00484 543.232903 
L 713.880706 551.42143 
L 715.63244 545.69454 
L 716.508306 544.20062 
L 717.384173 545.594036 
L 718.260039 542.306682 
L 719.135906 543.229091 
L 720.011772 544.689538 
L 720.887639 541.621362 
L 721.763506 543.150021 
L 722.639372 541.942161 
L 723.515239 536.275507 
L 724.391105 535.478975 
L 725.266972 531.43474 
L 726.142838 533.317694 
L 727.018705 526.989779 
L 727.894572 547.491895 
L 728.770438 543.218604 
L 729.646305 548.500338 
L 730.522171 551.217438 
L 731.398038 548.329912 
L 732.273905 550.482101 
L 733.149771 553.058585 
L 734.025638 553.290165 
L 734.901504 552.482541 
L 735.777371 553.742182 
L 736.653237 553.855742 
L 737.529104 552.661453 
L 738.404971 551.248917 
L 739.280837 550.229705 
L 740.156704 556.954022 
L 741.03257 561.052539 
L 741.908437 550.566014 
L 742.784303 551.863455 
M 744.536037 550.256386 
L 745.411903 548.652374 
L 746.28777 549.023414 
L 747.163636 551.393773 
L 747.163636 551.393773 
" clip-path="url(#p7397018f21)" style="fill: none; stroke: #1f77b4; stroke-width: 1.5; stroke-linecap: square"/>
   </g>
   <g id="patch_8">
    <path d="M 108 691.2 
L 108 424.145455 
" style="fill: none; stroke: #000000; stroke-width: 0.8; stroke-linejoin: miter; stroke-linecap: square"/>
   </g>
   <g id="patch_9">
    <path d="M 777.6 691.2 
L 777.6 424.145455 
" style="fill: none; stroke: #000000; stroke-width: 0.8; stroke-linejoin: miter; stroke-linecap: square"/>
   </g>
   <g id="patch_10">
    <path d="M 108 691.2 
L 777.6 691.2 
" style="fill: none; stroke: #000000; stroke-width: 0.8; stroke-linejoin: miter; stroke-linecap: square"/>
   </g>
   <g id="patch_11">
    <path d="M 108 424.145455 
L 777.6 424.145455 
" style="fill: none; stroke: #000000; stroke-width: 0.8; stroke-linejoin: miter; stroke-linecap: square"/>
   </g>
  </g>
 </g>
 <defs>
  <clipPath id="p53ec76d7e9">
   <rect x="108" y="103.68" width="669.6" height="267.054545"/>
  </clipPath>
  <clipPath id="p7397018f21">
   <rect x="108" y="424.145455" width="669.6" height="267.054545"/>
  </clipPath>
 </defs>
</svg>
